<?xml version="1.0" standalone="no"?>
<!DOCTYPE svg PUBLIC "-//W3C//DTD SVG 20010904//EN"
 "http://www.w3.org/TR/2001/REC-SVG-20010904/DTD/svg10.dtd">
<svg version="1.0" xmlns="http://www.w3.org/2000/svg"
 width="700.000000pt" height="700.000000pt" viewBox="0 0 700.000000 700.000000"
 preserveAspectRatio="xMidYMid meet">
<metadata>
Created by potrace 1.11, written by Peter Selinger 2001-2013
</metadata>
<g transform="translate(0.000000,700.000000) scale(0.100000,-0.100000)"
fill="#000000" stroke="none">
<path d="M631 3503 l-631 -1263 398 0 397 0 233 465 c128 256 236 464 240 461
4 -2 110 -212 237 -465 l230 -461 197 0 198 0 232 465 c128 256 235 465 238
465 3 0 110 -209 238 -465 l232 -465 390 0 c214 0 390 4 390 8 0 5 -282 573
-626 1263 l-626 1254 -332 -662 c-182 -365 -333 -663 -336 -663 -3 0 -154 298
-336 663 l-331 662 -632 -1262z"/>
<path d="M3767 3505 c346 -690 630 -1255 633 -1255 3 0 154 297 335 660 181
363 332 660 335 660 3 -1 153 -298 333 -662 185 -373 331 -657 336 -652 5 5
291 570 635 1257 l627 1247 -398 0 -398 0 -233 -465 c-128 -256 -236 -464
-240 -461 -4 2 -110 212 -237 465 l-230 461 -197 0 -198 0 -232 -465 c-128
-256 -235 -465 -238 -465 -3 0 -110 209 -238 465 l-232 465 -395 0 -395 0 627
-1255z"/>
</g>
</svg>
