<?xml version="1.0" encoding="utf-8"?>
<!-- Generator: Adobe Illustrator 23.0.1, SVG Export Plug-In . SVG Version: 6.00 Build 0)  -->
<svg version="1.1" id="Layer_1" xmlns="http://www.w3.org/2000/svg" xmlns:xlink="http://www.w3.org/1999/xlink" x="0px" y="0px"
	 viewBox="0 0 75 75" style="enable-background:new 0 0 75 75;" xml:space="preserve">
<style type="text/css">
	.st0{fill:#F8F8F8;}
</style>
<g id="React">
	<path class="st0" d="M65,37.5c0-3.6-4.6-7.1-11.6-9.2c1.6-7.1,0.9-12.8-2.3-14.6c-0.7-0.4-1.6-0.6-2.5-0.6v2.5
		c0.5,0,0.9,0.1,1.3,0.3c1.5,0.9,2.2,4.2,1.7,8.5c-0.1,1.1-0.3,2.2-0.6,3.3c-2.2-0.5-4.6-1-7.1-1.2c-1.5-2.1-3.1-4-4.7-5.6
		c3.7-3.4,7.1-5.3,9.4-5.3V13l0,0c-3.1,0-7.1,2.2-11.2,6c-4.1-3.8-8.1-6-11.2-6v2.5c2.3,0,5.8,1.8,9.4,5.2c-1.6,1.6-3.1,3.5-4.6,5.6
		c-2.5,0.3-4.9,0.7-7.1,1.2c-0.3-1.1-0.4-2.2-0.6-3.3c-0.5-4.3,0.1-7.6,1.6-8.5c0.3-0.2,0.8-0.3,1.3-0.3v-2.5l0,0
		c-0.9,0-1.8,0.2-2.5,0.6c-3.2,1.8-3.9,7.5-2.2,14.6c-7,2.2-11.5,5.6-11.5,9.2c0,3.6,4.6,7.1,11.6,9.2c-1.6,7.1-0.9,12.8,2.3,14.6
		c0.7,0.4,1.6,0.6,2.5,0.6c3.1,0,7.1-2.2,11.2-6c4.1,3.8,8.1,6,11.2,6c0.9,0,1.8-0.2,2.5-0.6c3.2-1.8,3.9-7.5,2.2-14.6
		C60.5,44.6,65,41.1,65,37.5z M50.4,30c-0.4,1.4-0.9,2.9-1.5,4.4c-0.5-0.9-0.9-1.8-1.5-2.7c-0.5-0.9-1.1-1.8-1.6-2.6
		C47.4,29.4,48.9,29.7,50.4,30z M45.3,42c-0.9,1.5-1.8,2.9-2.7,4.3c-1.7,0.1-3.4,0.2-5.1,0.2c-1.7,0-3.4-0.1-5-0.2
		c-0.9-1.3-1.8-2.8-2.7-4.3c-0.9-1.5-1.6-3-2.3-4.5c0.7-1.5,1.5-3,2.3-4.5c0.9-1.5,1.8-2.9,2.7-4.3c1.7-0.1,3.4-0.2,5.1-0.2
		c1.7,0,3.4,0.1,5,0.2c0.9,1.3,1.8,2.8,2.7,4.3c0.9,1.5,1.6,3,2.3,4.5C46.9,39,46.1,40.5,45.3,42z M48.9,40.5c0.6,1.5,1.1,3,1.5,4.5
		c-1.5,0.4-3,0.7-4.6,0.9c0.5-0.9,1.1-1.7,1.6-2.7C47.9,42.3,48.4,41.4,48.9,40.5z M37.5,52.5c-1-1.1-2.1-2.3-3.1-3.6
		c1,0,2,0.1,3.1,0.1c1.1,0,2.1,0,3.1-0.1C39.6,50.2,38.6,51.4,37.5,52.5z M29.2,45.9c-1.6-0.2-3.1-0.5-4.6-0.9
		c0.4-1.4,0.9-2.9,1.5-4.4c0.5,0.9,0.9,1.8,1.5,2.7C28.1,44.1,28.6,45,29.2,45.9z M37.5,22.5c1,1.1,2.1,2.3,3.1,3.6
		c-1,0-2-0.1-3.1-0.1c-1.1,0-2.1,0-3.1,0.1C35.4,24.8,36.4,23.6,37.5,22.5z M29.2,29.1c-0.5,0.9-1.1,1.7-1.6,2.7
		c-0.5,0.9-1,1.8-1.5,2.7c-0.6-1.5-1.1-3-1.5-4.5C26,29.7,27.6,29.4,29.2,29.1z M19,43.2c-4-1.7-6.5-3.9-6.5-5.7
		c0-1.8,2.6-4,6.5-5.7c1-0.4,2-0.8,3.1-1.1c0.6,2.2,1.5,4.5,2.5,6.8c-1,2.3-1.9,4.6-2.5,6.8C21.1,44,20,43.6,19,43.2z M25.1,59.2
		c-1.5-0.9-2.2-4.2-1.7-8.5c0.1-1.1,0.3-2.2,0.6-3.3c2.2,0.5,4.6,1,7.1,1.2c1.5,2.1,3.1,4,4.7,5.6c-3.7,3.4-7.1,5.3-9.4,5.3
		C25.8,59.5,25.4,59.4,25.1,59.2z M51.6,50.7c0.5,4.3-0.1,7.6-1.6,8.5c-0.3,0.2-0.8,0.3-1.3,0.3c-2.3,0-5.8-1.8-9.4-5.2
		c1.6-1.6,3.1-3.5,4.6-5.6c2.5-0.3,4.9-0.7,7.1-1.2C51.3,48.5,51.5,49.6,51.6,50.7z M56,43.2c-1,0.4-2,0.8-3.1,1.1
		c-0.6-2.2-1.5-4.5-2.5-6.8c1-2.3,1.9-4.6,2.5-6.8c1.1,0.3,2.2,0.7,3.2,1.1c4,1.7,6.5,3.9,6.5,5.7C62.5,39.3,59.9,41.5,56,43.2z"/>
	<circle class="st0" cx="37.5" cy="37.5" r="5.1"/>
</g>
</svg>
