<?xml version="1.0" encoding="utf-8"?>
<!-- Generator: Adobe Illustrator 21.1.0, SVG Export Plug-In . SVG Version: 6.00 Build 0)  -->
<svg version="1.1" id="Layer_1" xmlns="http://www.w3.org/2000/svg" xmlns:xlink="http://www.w3.org/1999/xlink" x="0px" y="0px"
	 viewBox="0 0 75 75" style="enable-background:new 0 0 75 75;" xml:space="preserve">
<style type="text/css">
	.st0{fill:#F8F8F8;}
</style>
<g id="js">
	<path class="st0" d="M46.4,43.4l2,21.7l8.6,2.4l8.6-2.4l2-21.7C67.5,43.4,46.4,43.4,46.4,43.4z M62.4,61.4L57,63l-5.4-1.6l-0.4-4.1
		h2.7l0.2,2.1l2.9,0.8l2.9-0.8l0.2-3.5h-8.7l1-9.7h10.1l0.5,5.6h-2.6l-0.3-2.7L54.5,49L54,53.2l9.1,0.1L62.4,61.4z"/>
	<path class="st0" d="M60.3,40.3L59,39h1.3v-1.4H57V39c0.5,0.5,0.7,0.7,1.3,1.3c-0.4,0-1.3,0-1.3,0v1.3h3.3V40.3z"/>
	<polygon class="st0" points="56.3,37.5 55,37.5 55,40.2 53.2,40.2 53.2,41.6 56.3,41.6 	"/>
</g>
<path id="css" class="st0" d="M15.2,40.2v1.3h-3.3v-4h3.3v1.4h-1.9v1.3H15.2z M18.5,38.9h1.3v-1.4h-3.3c0,0,0,0.7,0,1.4
	c0.5,0.4,0.7,0.6,1.3,1.3c-0.3,0-1.3,0-1.3,0v1.3h3.3v-1.3L18.5,38.9z M23.2,38.9h1.3v-1.4h-3.3c0,0,0,0.7,0,1.4
	c0.5,0.4,0.7,0.6,1.3,1.3c-0.3,0-1.3,0-1.3,0v1.3h3.3v-1.3L23.2,38.9z M28.9,43.4l-2,21.8l-8.7,2.3l-8.7-2.3l-2-21.8H28.9L28.9,43.4
	z M24.9,47.9h-6.7h-6.8l0.3,2.6h6.5h0.3l-0.3,0.2l-6.2,2.6l0.2,2.5h6h3.2l-0.2,3.4l-3,0.9l0,0h0l-2.9-0.8L15,57.2l0,0h-2.7l0,0
	l0.3,4.1l5.5,1.6l0,0l0,0l5.5-1.6l0.7-8.1h-6.2l0,0l0,0l6.4-2.8L24.9,47.9z"/>
<path id="html" class="st0" d="M28.8,7.5h1.3v1.4h1.2V7.5h1.3v4.1h-1.3v-1.3h-1.2v1.3h-1.3V7.5L28.8,7.5z M34.5,8.9h-1.2V7.5h3.8
	v1.4h-1.2v2.7h-1.3V8.9L34.5,8.9z M37.7,7.5h1.4L40,8.9l0.8-1.4h1.4v4.1h-1.3v-2l-1,1.4l0,0l-1-1.4v2h-1.3L37.7,7.5L37.7,7.5z
	 M43,7.5h1.3v2.7h1.9v1.3H43V7.5L43,7.5z M26.8,13.4l2,21.7l8.7,2.4l8.7-2.4l2-21.7H26.8L26.8,13.4z M44.1,18.5L44,19.9l0,0.6l0,0
	h-6.4l0,0h-3.8l0.2,2.7h3.5l0,0H43h0.7l0,0.7l-0.7,7l0,0.5l-5.5,1.5l0,0l0,0L32,31.4l-0.3-4.2H33h1.5l0.2,2.1l3,0.8l0,0l0,0l3-0.8
	l0.3-3.5h-3.2l0,0h-6L31,18.5l0-0.7h6.7l0,0h6.7L44.1,18.5z"/>
</svg>
