<?xml version="1.0" encoding="utf-8"?>
<!-- Generator: Adobe Illustrator 21.1.0, SVG Export Plug-In . SVG Version: 6.00 Build 0)  -->
<svg version="1.1" id="Layer_1" xmlns="http://www.w3.org/2000/svg" xmlns:xlink="http://www.w3.org/1999/xlink" x="0px" y="0px"
	 viewBox="0 0 75 75" style="enable-background:new 0 0 75 75;" xml:space="preserve">
<style type="text/css">
	.st0{fill:#F8F8F8;}
</style>
<g id="js">
	<path class="st0" d="M48.6,44.9l2.5,27l10.7,3l10.7-3l2.5-27C74.9,44.9,48.6,44.9,48.6,44.9z M68.5,67.3l-6.7,2l-6.7-2l-0.5-5.1
		h3.4l0.2,2.6l3.6,1l3.6-1l0.2-4.4H54.8l1.2-12.1h12.6l0.6,7H66L65.7,52l-7-0.1l-0.6,5.2l11.3,0.1L68.5,67.3z"/>
	<path class="st0" d="M65.9,41l-1.6-1.6h1.6v-1.7h-4.1v1.7c0.6,0.6,0.9,0.9,1.6,1.6c-0.5,0-1.6,0-1.6,0v1.6h4.1V41z"/>
	<polygon class="st0" points="60.9,37.5 59.3,37.5 59.3,40.9 57.1,40.9 57.1,42.6 60.9,42.6 	"/>
</g>
<path id="css" class="st0" d="M9.7,40.9v1.6H5.6v-5h4.1v1.7H7.3v1.6H9.7z M13.8,39.2h1.6v-1.7h-4.1c0,0,0,0.9,0,1.7
	c0.6,0.5,0.9,0.7,1.6,1.6c-0.4,0-1.6,0-1.6,0v1.6h4.1v-1.6L13.8,39.2z M19.7,39.2h1.6v-1.7h-4.1c0,0,0,0.9,0,1.7
	c0.6,0.5,0.9,0.7,1.6,1.6c-0.4,0-1.6,0-1.6,0v1.6h4.1v-1.6L19.7,39.2z M26.8,44.9L24.3,72l-10.8,2.9L2.6,72L0.1,44.9L26.8,44.9
	L26.8,44.9z M21.8,50.5h-8.3H5l0.4,3.2h8.1h0.4L13.4,54l-7.7,3.2L6,60.3h7.5h4l-0.2,4.2l-3.7,1.1l0,0l0,0l-3.6-1l-0.4-2.6l0,0H6.1
	l0,0l0.4,5.1l6.9,2l0,0l0,0l6.9-2L21,57.1h-7.7l0,0l0,0l8-3.5L21.8,50.5z"/>
<path id="html" class="st0" d="M26.6,0.1h1.6v1.7h1.5V0.1h1.6v5.1h-1.6V3.6h-1.5v1.6h-1.6V0.1L26.6,0.1z M33.7,1.9h-1.5V0.1H37v1.7
	h-1.5v3.4h-1.6V1.9H33.7z M37.7,0.1h1.7l1.1,1.7l1-1.7h1.7v5.1h-1.6V2.7l-1.2,1.7l0,0l-1.2-1.7v2.5h-1.6L37.7,0.1L37.7,0.1z
	 M44.3,0.1H46v3.4h2.4v1.6h-4V0.1L44.3,0.1z M24.2,7.5l2.5,27l10.8,3l10.8-3l2.5-27L24.2,7.5L24.2,7.5z M45.7,13.8l-0.1,1.7v0.7l0,0
	h-8l0,0h-4.7l0.2,3.4h4.4l0,0h6.9h0.9v0.9l-0.9,8.7v0.6l-6.9,1.9l0,0l0,0l-6.9-1.9l-0.4-5.2h1.6h1.9l0.2,2.6l3.7,1l0,0l0,0l3.7-1
	l0.4-4.4h-4l0,0h-7.5l-1-9.1v-0.9h8.3l0,0h8.3L45.7,13.8z"/>
</svg>
