<?xml version="1.0" encoding="utf-8"?>
<!-- Generator: Adobe Illustrator 21.1.0, SVG Export Plug-In . SVG Version: 6.00 Build 0)  -->
<svg version="1.1" id="Layer_1" xmlns="http://www.w3.org/2000/svg" xmlns:xlink="http://www.w3.org/1999/xlink" x="0px" y="0px"
	 viewBox="0 0 75 75" style="enable-background:new 0 0 75 75;" xml:space="preserve">
<style type="text/css">
	.st0{fill:#F8F8F8;}
</style>
<g id="AJAX">
	<g>
		<path class="st0" d="M50.3,54.8c0,1.9,0,3.9,0,5.8c0,1.2-0.6,1.3-1.5,1.3s-1.4-0.3-1.4-1.3c0-3.2,0-6.3,0-9.5
			c0-0.7-0.2-1.7,0.9-1.7c1.1-0.1,2.4-0.5,3,1c0.8,2,1.7,4,2.6,6C54,56.6,54,57,54.4,57c-0.3-1.9-0.2-3.7-0.2-5.5
			c0-0.9,0.2-1.7,1.2-2c1.2-0.4,1.8,0,1.8,1.3c0,3.1,0,6.2,0,9.3c0,0.7,0.3,1.6-0.9,1.8c-1.7,0.3-2.8,0-3.3-1.1
			C52.1,58.8,51.2,56.8,50.3,54.8C50.5,54.8,50.4,54.8,50.3,54.8z"/>
		<path class="st0" d="M45.7,55.8c0,3.7-1.5,5.8-4.5,6.3c-2.5,0.4-4.9-1-5.7-3.3c-0.7-2-0.7-4.1,0-6.1c0.9-2.6,2.9-3.7,5.9-3.3
			c2.3,0.3,4,2.1,4.3,4.8C45.7,54.7,45.7,55.3,45.7,55.8z M38.3,55.6c0,0.8,0,1.6,0.2,2.4c0.3,0.9,0.7,1.6,1.7,1.6
			c1.1,0,1.6-0.7,1.9-1.6c0.5-1.6,0.4-3.2,0-4.8c-0.2-0.9-0.8-1.4-1.8-1.4s-1.5,0.5-1.8,1.3C38.3,54,38.4,54.8,38.3,55.6z"/>
		<path class="st0" d="M29.3,62.2c-1.1-0.1-2.4-0.4-3.6-0.9c-0.9-0.5-0.8-1.1-0.4-1.8s0.7-1.2,1.7-0.7c0.9,0.5,1.9,0.8,3,0.7
			c0.5-0.1,0.9-0.2,1-0.8c0.1-0.5-0.2-0.8-0.6-1c-0.6-0.3-1.3-0.6-2-0.9c-2.4-1-3.4-2.4-3-4.4c0.3-1.8,2.1-3,4.5-3.1
			c1.2,0,2.2,0.2,3.3,0.6c0.9,0.3,0.9,0.9,0.6,1.6c-0.3,0.7-0.6,1.4-1.6,0.9c-0.8-0.4-1.7-0.6-2.6-0.5c-0.4,0-0.7,0.2-0.8,0.6
			c-0.1,0.5,0.1,0.8,0.5,1c0.6,0.3,1.3,0.6,2,0.9c2.4,1,3.5,2.6,3.1,4.5C33.8,60.9,32,62.2,29.3,62.2z"/>
		<path class="st0" d="M15.2,64.9c-1.9,0-3.3-1.2-3.6-3c-0.1-0.9-0.1-1.8-0.1-2.7c0-0.8-0.2-1.5-0.9-2c-0.8-0.7-0.9-1.7,0-2.4
			c0.7-0.5,0.9-1.2,0.9-2s0-1.5,0-2.3c0.1-2.1,1.4-3.3,3.4-3.5c0.7-0.1,1.1,0.1,1.4,0.8c0.2,0.6,0.2,1.2-0.5,1.4
			c-0.7,0.3-1,0.8-1,1.6c0,1.7,0.2,3.5-1.1,4.9c-0.2,0.2-0.1,0.4,0,0.6c1.1,1.3,1.1,2.8,1,4.4c0,1,0.1,1.8,1.1,2.2
			c0.6,0.2,0.6,0.7,0.4,1.3C16.1,64.7,15.8,65,15.2,64.9z"/>
		<path class="st0" d="M59.7,46.9c2.1-0.1,3.6,1.3,3.7,3.4c0,0.7,0,1.4,0,2.2c0,1,0.2,1.7,1.1,2.3c0.8,0.6,0.8,1.7,0,2.3
			c-0.8,0.6-1.1,1.4-1,2.3c0,0.7,0,1.4,0,2c0,2.1-1.3,3.3-3.4,3.5c-0.7,0-1.2-0.1-1.4-0.8c-0.2-0.6-0.1-1.2,0.6-1.4
			c0.8-0.3,1-0.9,1-1.7c0-1.7-0.3-3.4,1-4.7c0.2-0.2,0.1-0.4,0-0.6c-1.2-1.3-1.1-2.9-1-4.5c0-0.9-0.1-1.7-1.1-2
			c-0.7-0.2-0.6-0.8-0.5-1.4C58.8,47.2,59.1,46.9,59.7,46.9z"/>
		<path class="st0" d="M23.8,54.7c-0.1,1.4,0.2,3-0.3,4.7c-0.7,2.4-4.5,3.6-6.5,2c-0.6-0.5-0.4-1-0.1-1.6c0.2-0.5,0.5-1,1.3-0.8
			c1.9,0.5,2.4,0.1,2.5-1.9c0-2.1,0-4.2,0-6.4c0-1.1,0.5-1.4,1.5-1.4c0.9,0,1.7,0.1,1.7,1.4C23.7,51.9,23.8,53.2,23.8,54.7z"/>
	</g>
	<g>
		<path class="st0" d="M27.3,23.3c0.3-0.3,0.6-0.6,0.8-0.8c0.3-0.3,0.5-0.5,0.8-0.8c0.1-0.1,0.1-0.1,0.2,0c0.4,0.4,0.9,0.9,1.3,1.3
			c0.1,0.1,0.1,0.1,0,0.2c-1.5,1.5-3,3-4.5,4.5c-0.1,0.1-0.1,0.1-0.2,0c-0.5-0.5-0.9-0.9-1.4-1.4s-0.9-0.9-1.4-1.4
			c-0.6-0.6-1.2-1.2-1.8-1.8c-0.1-0.1,0-0.1,0-0.1c0.3-0.3,0.7-0.7,1-1c0.1-0.1,0.2-0.2,0.4-0.4c0.1-0.1,0.1-0.1,0.2,0
			c0.5,0.5,1,1,1.5,1.5l0.1,0.1c0,0,0-0.1,0-0.2c0-2.9,0-5.7,0-8.6c0-0.6,0-1.2,0.2-1.9c0.3-1.1,1-1.9,2.1-2.2
			c0.5-0.2,1.1-0.3,1.7-0.3c0.9,0,1.9,0,2.8,0c0.8,0,1.7,0.1,2.5,0.4c0.8,0.3,1.5,0.8,2,1.6c0.2,0.4,0.4,0.9,0.4,1.4
			c0.1,0.5,0,0.9,0,1.4c0,0.1-0.1,0.1-0.1,0.1c-1,0-2,0-2.9,0h-0.1c-0.1,0-0.1,0-0.1-0.1c0-0.3,0-0.6,0-0.9c0-0.3-0.1-0.6-0.3-0.9
			c-0.3-0.5-0.7-0.7-1.2-0.7c-0.8,0-1.5,0-2.3,0c-0.6,0-1.1,0.2-1.4,0.7c-0.2,0.3-0.3,0.7-0.4,1.2c0,0.3,0,0.6,0,0.8
			c0,2.7,0,5.4,0,8.1C27.3,23.2,27.3,23.2,27.3,23.3z"/>
		<path class="st0" d="M22.8,33.3c-0.5,0-1.1,0-1.6,0c-0.1,0-0.2,0-0.2-0.1c-0.3-0.7-0.6-1.5-0.9-2.2c0-0.1-0.1-0.1-0.2-0.1
			c-1.7,0-3.5,0-5.2,0c-0.1,0-0.2,0-0.2,0.1c-0.3,0.7-0.6,1.5-0.9,2.2c0,0.1-0.1,0.1-0.2,0.1c-1.1,0-2.2,0-3.3,0
			c-0.1,0-0.1,0-0.1-0.1c0.5-1.2,1.1-2.5,1.6-3.8c0.6-1.4,1.2-2.7,1.8-4.1c0.6-1.3,1.2-2.6,1.7-4c0.1-0.1,0.1-0.2,0.2-0.2
			c1.2,0,2.4,0,3.6,0c0.1,0,0.2,0,0.2,0.1c0.3,0.7,0.6,1.5,1,2.2c0.4,1,0.9,2,1.3,2.9c0.7,1.5,1.3,3.1,2,4.6
			c0.3,0.6,0.6,1.3,0.9,1.9c0,0,0,0,0,0.1c0.1,0.1,0.1,0.1-0.1,0.1C23.9,33.3,23.3,33.3,22.8,33.3z M17.3,23.9c0,0,0,0.1-0.1,0.1
			c-0.1,0.2-0.1,0.4-0.2,0.6c-0.5,1.3-1,2.6-1.5,3.8c-0.1,0.1-0.1,0.1,0.1,0.1c1.1,0,2.3,0,3.4,0h0.1c0,0,0.1,0,0-0.1v-0.1
			c-0.6-1.4-1.1-2.8-1.7-4.3C17.3,24.1,17.3,24,17.3,23.9z"/>
		<path class="st0" d="M43.3,21.2c0.6,0,1.2,0,1.8,0c0.1,0,0.2,0,0.2,0.1c0.9,2,1.7,3.9,2.6,5.9c0.7,1.6,1.4,3.2,2.1,4.8
			c0.2,0.4,0.3,0.7,0.5,1.1c0.1,0.1,0,0.1-0.1,0.1c-1.1,0-2.2,0-3.3,0c-0.1,0-0.1,0-0.2-0.1c-0.3-0.7-0.6-1.5-0.9-2.2
			c0-0.1-0.1-0.2-0.2-0.2c-1.7,0-3.4,0-5.2,0c-0.1,0-0.2,0-0.2,0.2c-0.3,0.7-0.6,1.5-0.9,2.2c0,0.1-0.1,0.1-0.2,0.1
			c-1.1,0-2.2,0-3.3,0c-0.2,0-0.2,0-0.1-0.2c0.4-0.9,0.8-1.9,1.2-2.8c0.7-1.5,1.3-3,2-4.6c0.7-1.5,1.3-3,1.9-4.4
			c0-0.1,0.1-0.1,0.2-0.1C42.1,21.2,42.7,21.2,43.3,21.2z M43.4,23.9C43.3,23.9,43.3,23.9,43.4,23.9c-0.1,0.1-0.1,0.2-0.2,0.3
			c-0.6,1.4-1.1,2.8-1.7,4.2c-0.1,0.1-0.1,0.2,0.1,0.2c1.1,0,2.3,0,3.4,0c0.2,0,0.2,0,0.1-0.2c-0.5-1.2-0.9-2.3-1.4-3.5
			C43.6,24.6,43.5,24.2,43.4,23.9z"/>
		<path class="st0" d="M33.2,20.5c-0.1,0-0.1,0-0.1,0.1c-0.5,0.5-1,1-1.5,1.5c-0.1,0.1-0.1,0.1-0.2,0c-0.4-0.4-0.9-0.9-1.3-1.3
			c-0.1-0.1-0.1-0.1,0-0.2c1-1,2.1-2,3.1-3.1c0.5-0.5,0.9-0.9,1.4-1.4c0.1-0.1,0.1-0.1,0.2,0c0.7,0.7,1.4,1.4,2.1,2.1
			c0.7,0.7,1.3,1.3,2,2c0.1,0.1,0.3,0.3,0.4,0.4c0.1,0.1,0.1,0.1,0,0.2c-0.5,0.4-0.9,0.9-1.3,1.3c-0.1,0.1-0.1,0.1-0.2,0
			c-0.5-0.5-1-1-1.6-1.6l0,0c0,0.1,0,0.1,0,0.2c0,3,0,5.9,0,8.9c0,0.6-0.1,1.1-0.2,1.7c-0.3,1.1-1,1.8-2,2.2
			c-0.5,0.2-1.1,0.3-1.7,0.3c-1,0.1-2,0-3,0c-0.9,0-1.7-0.1-2.6-0.5c-0.6-0.3-1.2-0.6-1.6-1.2c-0.3-0.4-0.5-0.9-0.6-1.4
			c-0.1-0.6-0.1-1.2-0.1-1.8c0-0.1,0.1-0.1,0.1-0.1c0.7,0,1.3,0,2,0c0.3,0,0.7,0,1,0c0.1,0,0.1,0,0.1,0.1c0,0.3,0,0.7,0,1
			c0.1,0.8,0.6,1.5,1.5,1.6c0.8,0,1.6,0.1,2.3,0c0.6,0,1.1-0.3,1.4-0.9c0.2-0.3,0.3-0.7,0.3-1.1s0-0.7,0-1.1
			C33.1,25.8,33.1,23.2,33.2,20.5C33.2,20.7,33.2,20.6,33.2,20.5z"/>
		<path class="st0" d="M63,33.3c-0.6,0-1.3,0-1.9,0c-0.1,0-0.2,0-0.2-0.1c-0.5-0.7-1-1.4-1.5-2.1c-0.4-0.6-0.8-1.1-1.2-1.7
			c-0.1-0.1-0.1-0.1-0.2,0c-0.7,0.9-1.3,1.8-2,2.7c-0.3,0.4-0.5,0.7-0.8,1.1c0,0.1-0.1,0.1-0.2,0.1c-1.3,0-2.6,0-3.9,0H51v-0.1
			c0.7-0.9,1.4-1.7,2.1-2.6c0.9-1.1,1.9-2.3,2.8-3.4c0.1-0.1,0.1-0.1,0-0.3c-0.4-0.5-0.9-1.1-1.3-1.6c-0.7-0.9-1.4-1.7-2.1-2.6
			c-0.4-0.5-0.7-0.9-1.1-1.4l0,0c0,0-0.1-0.1,0-0.1h0.1c0.7,0,1.3,0,2,0c0.6,0,1.1,0,1.7,0c0.1,0,0.2,0,0.2,0.1
			c0.8,1.2,1.6,2.3,2.4,3.4c0.1,0.2,0.1,0.2,0.2,0c0.4-0.5,0.7-1,1.1-1.6c0.5-0.6,0.9-1.3,1.4-1.9c0-0.1,0.1-0.1,0.2-0.1
			c1.2,0,2.5,0,3.7,0h0.1v0.1c-0.6,0.7-1.2,1.4-1.7,2.2c-0.9,1.2-1.9,2.3-2.8,3.5c-0.1,0.1-0.1,0.2,0,0.3c0.7,0.9,1.5,1.8,2.2,2.7
			c0.7,0.8,1.3,1.6,2,2.4c0.2,0.3,0.5,0.6,0.7,0.9l0,0c0,0,0.1,0.1,0,0.1h-0.1C64.2,33.3,63.6,33.3,63,33.3z"/>
	</g>
</g>
</svg>
