<?xml version="1.0" encoding="utf-8"?>
<!-- Generator: Adobe Illustrator 21.1.0, SVG Export Plug-In . SVG Version: 6.00 Build 0)  -->
<svg version="1.1" id="Layer_1" xmlns="http://www.w3.org/2000/svg" xmlns:xlink="http://www.w3.org/1999/xlink" x="0px" y="0px"
	 viewBox="0 0 75 75" style="enable-background:new 0 0 75 75;" xml:space="preserve">
<style type="text/css">
	.st0{fill:#F8F8F8;}
</style>
<g id="PHP_mySql">
	<g id="_x33_e91140ac1bfb9903b91c1b0ca08f5cb">
		<path class="st0" d="M37.2,40.3h4.2v1h-4.2h-0.1c-0.5,0-0.7,0.1-0.8,0.4v0.1v0.7v0.1c0.1,0.4,0.4,0.6,1,0.6h1.8
			c0.4,0,0.9,0.1,1.3,0.2c0.7,0.3,1.1,0.7,1.1,1.1v1.1c0,0.5-0.3,0.9-1,1.2c-0.4,0.2-0.9,0.3-1.4,0.3h-4.3v-1h4.1c0.1,0,0.1,0,0.2,0
			c0.3,0,0.5-0.1,0.6-0.2c0.1-0.1,0.2-0.2,0.2-0.4v-0.9c0-0.1,0-0.2-0.1-0.3C39.7,44.1,39.5,44,39,44c0,0-0.1,0-0.2,0h-1.5
			c-0.1,0-0.3,0-0.4,0c-1.3-0.1-2-0.7-2-1.4v-0.9c0-0.8,0.4-1.2,1.3-1.5C36.3,40.3,36.6,40.3,37.2,40.3z M48.7,46.8l1.5,1.3h-1.7
			L47.3,47l-1.2,0.1h-1.6c-0.3,0-0.6,0-0.9-0.1c-0.9-0.3-1.4-0.8-1.4-1.6v-3.5c0-0.9,0.6-1.4,1.9-1.6c0.1,0,0.3,0,0.4,0h2.8
			c0.1,0,0.3,0,0.4,0c1.2,0.2,1.9,0.7,1.9,1.6v3.5C49.6,46.2,49.4,46.6,48.7,46.8z M48.2,42L48.2,42c-0.1-0.5-0.5-0.7-1-0.7H45
			c-0.7,0-1.1,0.3-1.1,0.7v3.4c0,0,0,0.1,0,0.2c0.1,0.4,0.5,0.6,1.1,0.6h1.3L45,45h1.7l1.1,1c0.2-0.1,0.3-0.3,0.4-0.5v-0.1V42
			L48.2,42z M24.6,40.3c-1.1-0.4-1.9,0-2.2,0.7l-2.3,5l-2.2-5c-0.3-0.8-1.1-1.1-2.2-0.7c-0.5,0.1-0.7,0.4-0.7,1v5.8h1.5v-5.9
			l2.3,5.1c0.3,0.6,0.6,0.8,1.4,0.8c0.7,0,1.1-0.2,1.4-0.8l2.3-5.1v5.9h1.5v-5.8C25.3,40.7,25.1,40.4,24.6,40.3z M32.1,42.3v3.8
			c0,0-2.8,0-3.2,0c-0.8,0-0.9-0.4-0.9-0.6v-3.2h-1.5v3.3c0,0.7,0.9,1.4,2.4,1.4h3.2v0.4c0,0.2,0.1,0.6-0.8,0.7h-4.7v1h4.7
			c0.7,0,2.4-0.3,2.3-1.6v-5.3L32.1,42.3L32.1,42.3z M59.1,46.2l0.4,0.5h-0.2L59.1,46.2h-0.3v0.5h-0.2v-1.2h0.5
			c0.3,0,0.5,0.1,0.5,0.4C59.4,46.1,59.3,46.1,59.1,46.2z M58.9,46c0.2,0,0.3,0,0.3-0.2c0-0.1-0.2-0.2-0.3-0.2h-0.2V46H58.9z
			 M60,46.1c0,0.7-0.5,1.1-1.1,1.1s-1.1-0.4-1.1-1.1c0-0.7,0.5-1.1,1.1-1.1S60,45.4,60,46.1z M59.8,46.1c0-0.5-0.4-0.9-0.8-0.9
			c-0.5,0-0.8,0.4-0.8,0.9S58.6,47,59,47S59.8,46.6,59.8,46.1z M46.8,28.8c-0.2,0-0.3,0-0.5,0.1l0,0l0,0c0.1,0.2,0.3,0.3,0.4,0.5
			s0.2,0.4,0.3,0.5l0,0c0.2-0.1,0.2-0.3,0.2-0.6c-0.1-0.1-0.1-0.2-0.1-0.2C47.1,28.9,46.9,28.8,46.8,28.8z M59.4,42
			c0.1,0.1,0.2,0.2,0.4,0.3l0,0c-0.1-0.1-0.1-0.3-0.2-0.4c-0.1-0.1-0.2-0.2-0.3-0.3c-0.3-0.4-0.7-0.8-1.2-1.1
			c-0.4-0.3-1.1-0.6-1.3-1l0,0c0.3,0,0.5-0.1,0.8-0.2c0.4-0.1,0.7-0.1,1.1-0.2c0.2-0.1,0.4-0.1,0.5-0.2v-0.1
			c-0.2-0.2-0.3-0.5-0.6-0.7c-0.6-0.5-1.2-1-1.9-1.4c-0.4-0.2-0.8-0.4-1.2-0.6c-0.1-0.1-0.4-0.1-0.4-0.2c-0.2-0.3-0.3-0.6-0.5-0.9
			c-0.3-0.6-0.6-1.3-0.9-2c-0.2-0.4-0.3-0.9-0.6-1.3c-1.2-1.9-2.4-3.1-4.4-4.2c-0.4-0.2-0.9-0.3-1.5-0.5c-0.3,0-0.6,0-0.9-0.1
			c-0.2-0.1-0.4-0.3-0.5-0.4c-0.6-0.4-2.3-1.3-2.8-0.1c-0.3,0.7,0.5,1.5,0.7,1.8s0.4,0.6,0.6,0.9c0.1,0.2,0.1,0.4,0.2,0.6
			c0.2,0.5,0.4,1.1,0.6,1.5c0.1,0.2,0.3,0.5,0.4,0.7c0.1,0.1,0.3,0.2,0.3,0.4c-0.2,0.2-0.2,0.6-0.3,0.9c-0.4,1.3-0.3,2.9,0.3,3.8
			c0.2,0.3,0.6,0.9,1.2,0.7c0.5-0.2,0.4-0.9,0.5-1.4c0-0.1,0-0.2,0.1-0.3l0,0c0.2,0.3,0.3,0.6,0.5,0.9c0.3,0.6,1,1.1,1.5,1.5
			c0.3,0.2,0.5,0.6,0.8,0.7l0,0l0,0c-0.1-0.1-0.2-0.1-0.3-0.2c-0.2-0.2-0.4-0.4-0.6-0.7c-0.5-0.6-0.9-1.3-1.3-2.1
			c-0.2-0.3-0.3-0.7-0.5-1.1c-0.1-0.1-0.1-0.3-0.2-0.4c-0.2,0.3-0.4,0.5-0.5,0.8c-0.2,0.5-0.2,1.1-0.3,1.7c0,0,0,0-0.1,0
			c-0.4-0.1-0.5-0.5-0.6-0.8c-0.3-0.8-0.4-2.1-0.1-3c0.1-0.2,0.4-1,0.3-1.2s-0.3-0.3-0.4-0.5c-0.2-0.2-0.3-0.5-0.4-0.7
			c-0.3-0.6-0.4-1.3-0.7-2c-0.1-0.3-0.4-0.6-0.6-0.9s-0.5-0.5-0.6-0.9c-0.1-0.1-0.1-0.3-0.1-0.5c0-0.1,0.1-0.1,0.2-0.2
			s0.6,0,0.7,0.1c0.4,0.2,0.8,0.3,1.1,0.6c0.2,0.1,0.3,0.3,0.5,0.4c0.1,0,0.2,0,0.2,0c0.4,0.1,0.8,0,1.1,0.1
			c0.6,0.2,1.1,0.5,1.6,0.8c1.5,0.9,2.7,2.3,3.5,3.9c0.1,0.3,0.2,0.5,0.3,0.8c0.2,0.6,0.5,1.1,0.8,1.7c0.2,0.5,0.5,1.1,0.8,1.5
			c0.2,0.2,0.9,0.4,1.2,0.5c0.2,0.1,0.6,0.2,0.8,0.3c0.4,0.2,0.8,0.5,1.1,0.8c0.2,0.1,0.7,0.4,0.8,0.6c-0.9,0-1.6,0.1-2.2,0.3
			c-0.2,0.1-0.4,0.1-0.5,0.3c0.1,0.1,0.1,0.2,0.2,0.4s0.4,0.5,0.6,0.7s0.5,0.4,0.7,0.5c0.4,0.3,0.9,0.4,1.4,0.7
			C58.9,41.7,59.1,41.9,59.4,42z M52,45.4v-5.1h-1.5v5.1c0,1,0.8,1.6,2.3,1.7c0.1,0,0.3,0,0.4,0h3.9v-1h-3.9
			C52.4,46.1,52,45.9,52,45.4z"/>
	</g>
	<g id="_x35_151e0c8492e5103c096af88a51e39be_1_">
		<path class="st0" d="M24.3,29.6c-0.6-0.7-1.6-1-2.9-1H17l-2,10.5h2.3l0.5-2.8h2c0.9,0,1.6-0.1,2.1-0.3s1.1-0.5,1.5-0.9
			s0.7-0.7,0.9-1.2c0.2-0.4,0.4-0.9,0.5-1.4C25.1,31.3,24.9,30.3,24.3,29.6z M22.5,32.4c-0.2,0.8-0.5,1.4-0.9,1.7s-1.1,0.5-2.1,0.5
			h-1.4l0.9-4.4h1.6c0.9,0,1.4,0.2,1.7,0.5C22.6,31,22.6,31.6,22.5,32.4z M33.3,31.4l-0.9,4.9h-2.3l0.9-4.6c0.1-0.5,0.1-0.9-0.1-1.1
			s-0.6-0.3-1.1-0.3H28l-1.2,6h-2.3l2-10.5h2.3l-0.5,2.8h2c1.3,0,2.1,0.2,2.6,0.7C33.3,29.7,33.5,30.4,33.3,31.4z M42.1,29.6
			c-0.6-0.7-1.6-1-2.9-1h-4.4l-2,10.5h2.3l0.5-2.8h2c0.9,0,1.6-0.1,2.1-0.3s1.1-0.5,1.5-0.9s0.7-0.7,0.9-1.2
			c0.2-0.4,0.4-0.9,0.5-1.4C42.9,31.3,42.7,30.3,42.1,29.6z M40.3,32.4c-0.2,0.8-0.5,1.4-0.9,1.7s-1.1,0.5-2.1,0.5h-1.4l0.9-4.4h1.6
			c0.9,0,1.4,0.2,1.7,0.5C40.3,31,40.4,31.6,40.3,32.4z"/>
	</g>
</g>
</svg>
