<?xml version="1.0" encoding="utf-8"?>
<!-- Generator: Adobe Illustrator 21.1.0, SVG Export Plug-In . SVG Version: 6.00 Build 0)  -->
<svg version="1.1" id="Layer_1" xmlns="http://www.w3.org/2000/svg" xmlns:xlink="http://www.w3.org/1999/xlink" x="0px" y="0px"
	 viewBox="0 0 75 75" style="enable-background:new 0 0 75 75;" xml:space="preserve">
<style type="text/css">
	.st0{fill:#F8F8F8;}
</style>
<g id="PHP_mySql">
	<g id="_x33_e91140ac1bfb9903b91c1b0ca08f5cb">
		<path class="st0" d="M37.1,40.9h5.1v1.2h-5.1H37c-0.6,0-0.9,0.1-1,0.5v0.1v0.9v0.1c0.1,0.5,0.5,0.7,1.2,0.7h2.2
			c0.5,0,1.1,0.1,1.6,0.2c0.9,0.4,1.3,0.9,1.3,1.3v1.3c0,0.6-0.4,1.1-1.2,1.5c-0.5,0.2-1.1,0.4-1.7,0.4h-5.3V48h5c0.1,0,0.1,0,0.2,0
			c0.4,0,0.6-0.1,0.7-0.2s0.2-0.2,0.2-0.5v-1.1c0-0.1,0-0.2-0.1-0.4c-0.1-0.2-0.4-0.4-1-0.4c0,0-0.1,0-0.2,0h-1.8
			c-0.1,0-0.4,0-0.5,0c-1.6-0.1-2.4-0.9-2.4-1.7v-1.1c0-1,0.5-1.5,1.6-1.8C36,40.9,36.4,40.9,37.1,40.9z M51.2,48.9l1.8,1.6h-2.1
			l-1.5-1.3L48,49.2h-2c-0.4,0-0.7,0-1.1-0.1c-1.1-0.4-1.7-1-1.7-2v-4.3c0-1.1,0.7-1.7,2.3-2c0.1,0,0.4,0,0.5,0h3.4
			c0.1,0,0.4,0,0.5,0c1.5,0.2,2.3,0.9,2.3,2v4.3C52.3,48.1,52,48.6,51.2,48.9z M50.6,43L50.6,43c-0.1-0.6-0.6-0.9-1.2-0.9h-2.7
			c-0.9,0-1.3,0.4-1.3,0.9v4.2c0,0,0,0.1,0,0.2c0.1,0.5,0.6,0.7,1.3,0.7h1.6l-1.6-1.5h2.1l1.3,1.2c0.2-0.1,0.4-0.4,0.5-0.6v-0.1V43
			L50.6,43z M21.7,40.9c-1.3-0.5-2.3,0-2.7,0.9l-2.8,6.1l-2.7-6.1c-0.4-1-1.3-1.3-2.7-0.9c-0.6,0.1-0.9,0.5-0.9,1.2v7.1h1.8V42
			l2.8,6.2c0.4,0.7,0.7,1,1.7,1c0.9,0,1.3-0.2,1.7-1l2.8-6.2v7.2h1.8v-7.1C22.6,41.4,22.3,41.1,21.7,40.9z M30.9,43.4V48
			c0,0-3.4,0-3.9,0c-1,0-1.1-0.5-1.1-0.7v-3.9h-1.8v4c0,0.9,1.1,1.7,2.9,1.7h3.9v0.5c0,0.2,0.1,0.7-1,0.9h-5.7v1.2h5.7
			c0.9,0,2.9-0.4,2.8-2v-6.5L30.9,43.4L30.9,43.4z M63.9,48.1l0.5,0.6h-0.2L63.9,48.1h-0.4v0.6h-0.2v-1.5h0.6c0.4,0,0.6,0.1,0.6,0.5
			C64.3,48,64.1,48,63.9,48.1z M63.7,47.9c0.2,0,0.4,0,0.4-0.2c0-0.1-0.2-0.2-0.4-0.2h-0.2v0.5H63.7z M65,48c0,0.9-0.6,1.3-1.3,1.3
			s-1.3-0.5-1.3-1.3c0-0.9,0.6-1.3,1.3-1.3S65,47.2,65,48z M64.8,48c0-0.6-0.5-1.1-1-1.1c-0.6,0-1,0.5-1,1.1s0.5,1.1,1,1.1
			S64.8,48.6,64.8,48z M48.9,26.9c-0.2,0-0.4,0-0.6,0.1l0,0l0,0c0.1,0.2,0.4,0.4,0.5,0.6c0.1,0.2,0.2,0.5,0.4,0.6l0,0
			c0.2-0.1,0.2-0.4,0.2-0.7c-0.1-0.1-0.1-0.2-0.1-0.2C49.2,27,49,26.9,48.9,26.9z M64.3,43c0.1,0.1,0.2,0.2,0.5,0.4l0,0
			c-0.1-0.1-0.1-0.4-0.2-0.5c-0.1-0.1-0.2-0.2-0.4-0.4c-0.4-0.5-0.9-1-1.5-1.3c-0.5-0.4-1.3-0.7-1.6-1.2l0,0c0.4,0,0.6-0.1,1-0.2
			c0.5-0.1,0.9-0.1,1.3-0.2c0.2-0.1,0.5-0.1,0.6-0.2v-0.1c-0.2-0.2-0.4-0.6-0.7-0.9c-0.7-0.6-1.5-1.2-2.3-1.7
			c-0.5-0.2-1-0.5-1.5-0.7c-0.1-0.1-0.5-0.1-0.5-0.2c-0.2-0.4-0.4-0.7-0.6-1.1c-0.4-0.7-0.7-1.6-1.1-2.4c-0.2-0.5-0.4-1.1-0.7-1.6
			c-1.5-2.3-2.9-3.8-5.4-5.1c-0.5-0.2-1.1-0.4-1.8-0.6c-0.4,0-0.7,0-1.1-0.1c-0.2-0.1-0.5-0.4-0.6-0.5c-0.7-0.5-2.8-1.6-3.4-0.1
			c-0.4,0.9,0.6,1.8,0.9,2.2s0.5,0.7,0.7,1.1c0.1,0.2,0.1,0.5,0.2,0.7c0.2,0.6,0.5,1.3,0.7,1.8c0.1,0.2,0.4,0.6,0.5,0.9
			c0.1,0.1,0.4,0.2,0.4,0.5c-0.2,0.2-0.2,0.7-0.4,1.1c-0.5,1.6-0.4,3.5,0.4,4.6c0.2,0.4,0.7,1.1,1.5,0.9c0.6-0.2,0.5-1.1,0.6-1.7
			c0-0.1,0-0.2,0.1-0.4l0,0c0.2,0.4,0.4,0.7,0.6,1.1c0.4,0.7,1.2,1.3,1.8,1.8c0.4,0.2,0.6,0.7,1,0.9l0,0l0,0
			c-0.1-0.1-0.2-0.1-0.4-0.2c-0.2-0.2-0.5-0.5-0.7-0.9c-0.6-0.7-1.1-1.6-1.6-2.6c-0.2-0.4-0.4-0.9-0.6-1.3c-0.1-0.1-0.1-0.4-0.2-0.5
			c-0.2,0.4-0.5,0.6-0.6,1c-0.2,0.6-0.2,1.3-0.4,2.1c0,0,0,0-0.1,0c-0.5-0.1-0.6-0.6-0.7-1c-0.4-1-0.5-2.6-0.1-3.7
			c0.1-0.2,0.5-1.2,0.4-1.5c-0.1-0.2-0.4-0.4-0.5-0.6c-0.2-0.2-0.4-0.6-0.5-0.9c-0.4-0.7-0.5-1.6-0.9-2.4c-0.1-0.4-0.5-0.7-0.7-1.1
			c-0.2-0.4-0.6-0.6-0.7-1.1c-0.1-0.1-0.1-0.4-0.1-0.6c0-0.1,0.1-0.1,0.2-0.2c0.1-0.1,0.7,0,0.9,0.1c0.5,0.2,1,0.4,1.3,0.7
			c0.2,0.1,0.4,0.4,0.6,0.5c0.1,0,0.2,0,0.2,0c0.5,0.1,1,0,1.3,0.1c0.7,0.2,1.3,0.6,2,1c1.8,1.1,3.3,2.8,4.3,4.8
			c0.1,0.4,0.2,0.6,0.4,1c0.2,0.7,0.6,1.3,1,2.1c0.2,0.6,0.6,1.3,1,1.8c0.2,0.2,1.1,0.5,1.5,0.6c0.2,0.1,0.7,0.2,1,0.4
			c0.5,0.2,1,0.6,1.3,1c0.2,0.1,0.9,0.5,1,0.7c-1.1,0-2,0.1-2.7,0.4c-0.2,0.1-0.5,0.1-0.6,0.4c0.1,0.1,0.1,0.2,0.2,0.5
			c0.1,0.2,0.5,0.6,0.7,0.9c0.2,0.2,0.6,0.5,0.9,0.6c0.5,0.4,1.1,0.5,1.7,0.9C63.7,42.6,63.9,42.9,64.3,43z M55.2,47.2v-6.2h-1.8
			v6.2c0,1.2,1,2,2.8,2.1c0.1,0,0.4,0,0.5,0h4.8V48h-4.8C55.7,48,55.2,47.8,55.2,47.2z"/>
	</g>
	<g id="_x35_151e0c8492e5103c096af88a51e39be_1_">
		<path class="st0" d="M21.4,27.9c-0.7-0.9-2-1.2-3.5-1.2h-5.4L10,39.5h2.8l0.6-3.4h2.4c1.1,0,2-0.1,2.6-0.4s1.3-0.6,1.8-1.1
			c0.5-0.5,0.9-0.9,1.1-1.5c0.2-0.5,0.5-1.1,0.6-1.7C22.3,29.9,22.1,28.7,21.4,27.9z M19.2,31.3c-0.2,1-0.6,1.7-1.1,2.1
			c-0.5,0.4-1.3,0.6-2.6,0.6h-1.7l1.1-5.4h2c1.1,0,1.7,0.2,2.1,0.6C19.3,29.6,19.3,30.3,19.2,31.3z M32.4,30.1l-1.1,6h-2.8l1.1-5.6
			c0.1-0.6,0.1-1.1-0.1-1.3c-0.2-0.2-0.7-0.4-1.3-0.4h-2.2L24.4,36h-2.8l2.4-12.8h2.8l-0.6,3.4h2.4c1.6,0,2.6,0.2,3.2,0.9
			C32.4,28,32.6,28.8,32.4,30.1z M43.1,27.9c-0.7-0.9-2-1.2-3.5-1.2h-5.4l-2.4,12.8h2.8l0.6-3.4h2.4c1.1,0,2-0.1,2.6-0.4
			s1.3-0.6,1.8-1.1c0.5-0.5,0.9-0.9,1.1-1.5c0.2-0.5,0.5-1.1,0.6-1.7C44.1,29.9,43.9,28.7,43.1,27.9z M40.9,31.3
			c-0.2,1-0.6,1.7-1.1,2.1c-0.5,0.4-1.3,0.6-2.6,0.6h-1.7l1.1-5.4h2c1.1,0,1.7,0.2,2.1,0.6C40.9,29.6,41,30.3,40.9,31.3z"/>
	</g>
</g>
</svg>
