<?xml version="1.0" encoding="utf-8"?>
<!-- Generator: Adobe Illustrator 21.1.0, SVG Export Plug-In . SVG Version: 6.00 Build 0)  -->
<svg version="1.1" id="Layer_1" xmlns="http://www.w3.org/2000/svg" xmlns:xlink="http://www.w3.org/1999/xlink" x="0px" y="0px"
	 viewBox="0 0 75 75" style="enable-background:new 0 0 75 75;" xml:space="preserve">
<style type="text/css">
	.st0{fill:#F8F8F8;}
</style>
<g id="CI">
	<g id="_x35_151e0c8492e5103c096af88a51f1feb">
		<path class="st0" d="M59.1,47.8c-0.2,9.5-8.2,16.1-16.1,18c3.7-1.6,7-4.7,7.5-9.3c0.4-4.2-1.6-7.8-4.4-10.4
			c-2.6-2.5-5.8-4.2-8.7-6.3c-1.7-1.2-4.2-3.7-3.3-6.3c-1.2,1.1-2.1,2.6-2.4,4.2c-0.7,3.2,1.1,5.7,3,7.9s1.8,6.1-1.5,6.9
			c-1.4,0.3-2.8-0.3-3.7-1.5c-0.9-1.3-0.7-2.7-0.3-4.2c-3,2.3-5.4,5.8-5.4,10c0,3.8,2.9,7.5,6,9c-6.2-1.5-11.6-5.9-13.3-12.8
			s0.6-13.8,4.4-19.3c1.9-2.8,4.1-5.2,6.4-7.6c2.1-2.2,4.5-4.2,6.4-6.6c2-2.5,4.5-6.9,2.6-10.3c3.5,2.8,6.2,7.5,5.8,12.3
			c-0.4,3.9-3,7.8-0.4,11.4c1.6,2.3,4.9,1.8,6.1-0.4l-0.1,0.1c0.2-0.4,0.4-0.7,0.4-1.2c0,0.1,0,0.1,0,0.2c0.1-0.3,0.1-0.7,0.1-1.1
			c0,0.3,0,0.6-0.1,0.9c0-0.3,0-0.7-0.2-1.1c0.1,0.1,0.2,0.1,0.3,0.2C54.3,34,59.2,40,59.1,47.8z"/>
	</g>
</g>
</svg>
