<?xml version="1.0" encoding="utf-8"?>
<!-- Generator: Adobe Illustrator 21.1.0, SVG Export Plug-In . SVG Version: 6.00 Build 0)  -->
<svg version="1.1" id="Layer_1" xmlns="http://www.w3.org/2000/svg" xmlns:xlink="http://www.w3.org/1999/xlink" x="0px" y="0px"
	 viewBox="0 0 75 75" style="enable-background:new 0 0 75 75;" xml:space="preserve">
<style type="text/css">
	.st0{fill:#F8F8F8;}
</style>
<path id="concrete5" class="st0" d="M61.1,45.8c-5.4-6.4-13.7,7.1-18.2,10.1c-3.1,2-7.8,2.2-11.1,0.3c-4.5-2.7-3.1-9,1.6-10.6
	c4.2-1.4,11.6,3.1,14.3-1.4c3.3-5.5-8-6.8-11.4-6.7c-6,0.2-11.9,2.2-15.4,6.8c-3.9,4.9-3,10.9,1.3,15.3c4.3,4.2,10.6,5.8,16.9,5.3
	c1.6-0.1,4.3-0.8,6.4-1.9C49.6,60.7,62.2,47.1,61.1,45.8z M21.6,41c2.1,0.4-2-11.3-2.2-12.9c-0.3-1.9-1-4.7-3-5
	c-2.2-0.3-2.9,2.2-2.4,4.5C14.4,29.9,19.6,40.6,21.6,41z M38.9,35c3.2,0.5,3-15.1,3-17.2c0-1.9,0.7-7.2-1.8-7.7
	c-3.5-0.7-3.9,4-4,6.5C36.3,19,35.5,34.5,38.9,35z M46.6,37.4c3.5,1.5,6.3-14.2,6.6-16.3c0.4-2.1,0.5-6.4-3.1-5
	c-1.8,0.7-2.1,3.6-2.4,5.1C47.4,23.3,43.9,36.3,46.6,37.4z M29.6,36.1c4,0.3,0.2-15.5-0.1-17.6c-0.3-2.1-1.8-6.5-4.8-3.9
	c-1.5,1.3-0.8,4.2-0.5,5.8C24.5,22.5,26.5,35.9,29.6,36.1z"/>
</svg>
