<?xml version="1.0" encoding="utf-8"?>
<!-- Generator: Adobe Illustrator 23.0.1, SVG Export Plug-In . SVG Version: 6.00 Build 0)  -->
<svg version="1.1" id="Layer_1" xmlns="http://www.w3.org/2000/svg" xmlns:xlink="http://www.w3.org/1999/xlink" x="0px" y="0px"
	 viewBox="0 0 75 75" style="enable-background:new 0 0 75 75;" xml:space="preserve">
<style type="text/css">
	.st0{fill:#F8F8F8;}
</style>
<path id="Git" class="st0" d="M64,40.1L40.1,64c-1.4,1.4-3.6,1.4-5,0l-24-24c-1.4-1.4-1.4-3.6,0-5l16.5-16.5l6.2,6.2
	c-0.6,1.5-0.3,3.4,0.9,4.6c0.4,0.4,0.9,0.7,1.4,0.9v15.1c-0.5,0.2-1,0.5-1.4,0.9c-1.6,1.6-1.6,4.3,0,6c1.6,1.6,4.3,1.6,6,0
	c1.6-1.6,1.6-4.3,0-6c-0.3-0.3-0.7-0.6-1.1-0.8v-15l5.7,5.7c-0.6,1.5-0.3,3.3,0.9,4.6c1.6,1.6,4.3,1.6,6,0c1.6-1.6,1.6-4.3,0-6
	c-1.2-1.2-2.9-1.5-4.4-1l-6.1-6.1c0.5-1.5,0.2-3.2-1-4.4c-1.2-1.2-2.9-1.5-4.3-1L30,16l5-5c1.4-1.4,3.6-1.4,5,0l24,24
	C65.2,36.4,65.2,38.7,64,40.1z"/>
</svg>
