<?xml version="1.0" encoding="utf-8"?>
<!-- Generator: Adobe Illustrator 21.1.0, SVG Export Plug-In . SVG Version: 6.00 Build 0)  -->
<svg version="1.1" id="Layer_1" xmlns="http://www.w3.org/2000/svg" xmlns:xlink="http://www.w3.org/1999/xlink" x="0px" y="0px"
	 viewBox="0 0 75 75" style="enable-background:new 0 0 75 75;" xml:space="preserve">
<style type="text/css">
	.st0{fill:#F8F8F8;}
</style>
<path id="Sass" class="st0" d="M57.3,40.6c-1.9,0-3.6,0.5-5,1.2c-0.5-1-1-1.9-1.1-2.6c-0.1-0.8-0.2-1.2-0.1-2.2s0.7-2.2,0.7-2.3
	c0-0.1-0.1-0.6-1.2-0.6s-2.1,0.2-2.2,0.5c-0.1,0.3-0.3,1-0.5,1.6c-0.2,1-2.2,4.6-3.4,6.5c-0.4-0.7-0.7-1.4-0.8-1.9
	c-0.1-0.8-0.2-1.2-0.1-2.2s0.7-2.2,0.7-2.3c0-0.1-0.1-0.6-1.2-0.6s-2.1,0.2-2.2,0.5c-0.1,0.3-0.2,1-0.5,1.6
	c-0.2,0.7-2.9,6.6-3.6,8.2c-0.4,0.8-0.7,1.4-0.9,1.9s0,0,0,0.1c-0.2,0.4-0.3,0.6-0.3,0.6v0c-0.2,0.3-0.3,0.5-0.4,0.5
	c-0.1,0-0.2-0.7,0-1.7c0.4-2.1,1.4-5.3,1.4-5.4c0-0.1,0.2-0.6-0.6-0.9c-0.8-0.3-1.1,0.2-1.1,0.2c-0.1,0-0.1,0.2-0.1,0.2
	s0.9-3.6-1.7-3.6c-1.6,0-3.8,1.7-4.9,3.3c-0.7,0.4-2.1,1.2-3.7,2c-0.6,0.3-1.2,0.7-1.8,1l-0.1-0.1c-3.1-3.3-8.8-5.6-8.5-10
	c0.1-1.6,0.6-5.8,10.9-10.9c8.4-4.2,15.1-3,16.3-0.5c1.7,3.7-3.6,10.4-12.3,11.4c-3.3,0.4-5.1-0.9-5.5-1.4C23.1,32,23,32,22.8,32.1
	c-0.3,0.2-0.1,0.6,0,0.9c0.3,0.7,1.3,1.9,3.2,2.5c1.6,0.5,5.5,0.8,10.2-1c5.3-2.1,9.4-7.7,8.2-12.5c-1.2-4.8-9.3-6.4-16.9-3.7
	c-4.5,1.6-9.4,4.1-12.9,7.4c-4.2,3.9-4.9,7.3-4.6,8.7c1,5.1,7.9,8.4,10.7,10.8c-0.1,0.1-0.3,0.2-0.4,0.2c-1.4,0.7-6.7,3.5-8,6.4
	c-1.5,3.3,0.2,5.7,1.4,6c3.6,1,7.3-0.8,9.2-3.7c2-3,1.7-6.8,0.8-8.5l0-0.1l1.1-0.6c0.7-0.4,1.4-0.8,2-1.1c-0.3,0.9-0.6,2-0.7,3.7
	c-0.2,1.9,0.6,4.3,1.6,5.3c0.5,0.4,1,0.4,1.3,0.4c1.2,0,1.7-1,2.3-2.1c0.7-1.4,1.4-3.1,1.4-3.1s-0.8,4.5,1.4,4.5c0.8,0,1.6-1,2-1.6
	v0c0,0,0,0,0.1-0.1c0.1-0.1,0.1-0.2,0.1-0.2v0c0.3-0.6,1-1.8,2.1-4c1.4-2.7,2.7-6.1,2.7-6.1s0.1,0.8,0.5,2.2
	c0.2,0.8,0.8,1.7,1.2,2.6c-0.3,0.5-0.5,0.7-0.5,0.7l0,0c-0.3,0.3-0.5,0.7-0.8,1.1c-1.1,1.3-2.4,2.8-2.6,3.2
	c-0.2,0.5-0.2,0.9,0.2,1.2c0.3,0.2,0.8,0.3,1.4,0.2c1-0.1,1.7-0.3,2-0.5c0.5-0.2,1.2-0.5,1.7-0.9c1.1-0.8,1.7-1.9,1.7-3.4
	c0-0.8-0.3-1.6-0.6-2.4c0.1-0.1,0.2-0.3,0.3-0.4c1.7-2.5,3-5.2,3-5.2s0.1,0.8,0.5,2.2c0.2,0.7,0.6,1.5,1,2.2
	c-1.6,1.3-2.6,2.8-2.9,3.8c-0.6,1.8-0.1,2.7,0.8,2.8c0.4,0.1,1-0.1,1.5-0.3c0.6-0.2,1.2-0.5,1.9-1c1.1-0.8,2.1-1.9,2.1-3.4
	c0-0.7-0.2-1.4-0.5-2c1.4-0.6,3.1-0.9,5.3-0.6c4.8,0.6,5.7,3.5,5.5,4.8s-1.2,1.9-1.5,2.1c-0.3,0.2-0.4,0.3-0.4,0.4
	c0,0.2,0.2,0.2,0.5,0.2c0.4-0.1,2.5-1,2.6-3.3C65.1,43.8,62.3,40.5,57.3,40.6L57.3,40.6z M20.5,53c-1.6,1.7-3.8,2.4-4.7,1.8
	c-1-0.6-0.6-3.1,1.3-5c1.2-1.1,2.7-2.1,3.7-2.8c0.2-0.1,0.6-0.3,1-0.6c0.1,0,0.1-0.1,0.1-0.1c0.1,0,0.2-0.1,0.2-0.2
	C22.8,48.9,22.1,51.2,20.5,53L20.5,53z M32,45.1c-0.5,1.3-1.7,4.8-2.4,4.6c-0.6-0.2-1-2.8-0.1-5.3c0.4-1.3,1.3-2.8,1.9-3.4
	c0.9-1,1.8-1.3,2.1-0.9C33.7,40.6,32.4,44.3,32,45.1z M41.6,49.7c-0.2,0.1-0.5,0.2-0.5,0.1c-0.1,0,0.1-0.2,0.1-0.2s1.2-1.3,1.7-1.9
	c0.3-0.3,0.6-0.7,0.9-1.2v0.1C43.7,48.2,42.2,49.3,41.6,49.7z M48.9,48c-0.2-0.1-0.2-0.5,0.4-1.8c0.2-0.5,0.7-1.3,1.6-2.1
	c0.1,0.3,0.2,0.6,0.2,0.9C51.1,47,49.7,47.7,48.9,48z"/>
</svg>
