<svg id="Layer_1" data-name="Layer 1" xmlns="http://www.w3.org/2000/svg" viewBox="0 0 150 85.92"><defs><style>.cls-1{fill:#212121;}</style></defs><title>Artboard 1</title><polygon class="cls-1" points="12.61 85.92 15.46 85.92 18.89 79.06 22.31 85.92 28.08 85.92 18.89 67.37 14.04 76.99 9.18 67.41 0 85.92 5.77 85.92 9.18 79.07 12.61 85.92"/><polygon class="cls-1" points="46.27 85.58 44.42 85.58 41.68 78.18 39.62 71.59 37.5 78.21 34.75 85.58 32.9 85.58 26.87 68.65 28.72 68.65 33.83 83.63 39 68.65 40.2 68.65 45.35 83.63 50.42 68.65 52.27 68.65 46.27 85.58"/><path class="cls-1" d="M71.3,68.65V85.58H69.62V82a7.92,7.92,0,0,1-6.92,3.87,8.71,8.71,0,0,1,0-17.41,7.68,7.68,0,0,1,6.92,3.91v-3.7ZM55.77,77.11a6.8,6.8,0,0,0,6.92,7.1c9.43,0,9.43-14.16,0-14.16a6.77,6.77,0,0,0-6.92,7.06"/><rect class="cls-1" x="75.85" y="61.58" width="1.68" height="24"/><path class="cls-1" d="M96.11,83.22a8.67,8.67,0,0,1-6.17,2.54,8.35,8.35,0,0,1-8.71-8.64c0-5.35,3.8-8.64,8.71-8.64A8.82,8.82,0,0,1,96.11,71L95,72.07a7.18,7.18,0,0,0-5.07-2,7.06,7.06,0,0,0,0,14.13,7.17,7.17,0,0,0,5-2.09Z"/><path class="cls-1" d="M101.15,61.58V71.8a6.78,6.78,0,0,1,6.1-3.39c4.73,0,7.1,3.05,7.1,7.47v9.7H112.7v-9.7c0-3.5-1.65-5.86-5.45-5.86a6,6,0,0,0-6,6.27v9.29H99.54v-24Z"/><path class="cls-1" d="M117.78,77.11a8.51,8.51,0,0,1,8.61-8.74c4.77,0,9,2.91,8.36,9.53H119.49a6.66,6.66,0,0,0,6.89,6.27c2.23,0,4.83-.89,6.1-2.57l1.2,1a9.31,9.31,0,0,1-7.3,3.26,8.31,8.31,0,0,1-8.61-8.71m15.46-.69c0-4.18-2.78-6.51-6.86-6.51a6.77,6.77,0,0,0-6.89,6.51Z"/><path class="cls-1" d="M140.67,68.65l.07,3a6,6,0,0,1,5.62-3.19,6.61,6.61,0,0,1,3.64,1l-.75,1.37a5.45,5.45,0,0,0-2.88-.79,5.62,5.62,0,0,0-5.59,5.66v9.87H139.1V68.65Z"/><polygon class="cls-1" points="112.83 0.09 104.44 0.09 94.33 20.28 84.25 0.09 67.27 0.09 94.33 54.12 108.63 25.47 122.94 54.15 150 0.09 133.01 0.09 122.94 20.26 112.83 0.09"/><polygon class="cls-1" points="37.17 54.22 45.56 54.22 55.67 34.02 65.75 54.22 82.73 54.22 55.67 0 41.37 28.56 27.06 0.02 0 54.22 16.99 54.22 27.06 34.05 37.17 54.22"/></svg>